<svg width="390" height="844" viewBox="0 0 390 844" fill="none" xmlns="http://www.w3.org/2000/svg">
<mask id="mask0_1_25" style="mask-type:alpha" maskUnits="userSpaceOnUse" x="0" y="0" width="390" height="844">
<rect width="390" height="844" fill="#4BC1CB"/>
</mask>
<g mask="url(#mask0_1_25)">
<path d="M467.168 537.805C443.711 476.969 399.703 440.93 343.199 436.303C314.295 433.99 288.555 445.329 263.631 456.31C242.98 465.402 223.471 474.004 203.277 475.177C182.496 474.004 162.987 465.402 142.337 456.31C117.38 445.329 91.6402 434.022 62.7359 436.303C6.26481 440.93 -37.7441 476.969 -61.2329 537.903C-61.6897 539.207 -106.906 668.667 -30.9258 781.965C-33.3073 807.283 -52.1636 1035.77 49.3929 1108.27C55.7148 1110.94 62.4956 1112.36 69.3584 1112.44C75.3481 1112.55 81.2586 1111.06 86.4857 1108.14C96.8273 1102.11 102.797 1090.35 104.461 1072.3C104.461 1070.34 92.6515 877.536 189.282 871.117C193.751 870.824 198.221 870.889 202.657 870.922H209.182C211.694 870.922 214.239 870.922 216.751 870.922C313.283 877.439 301.572 1070.15 301.572 1072.95C303.17 1090.15 309.205 1101.92 319.58 1107.94C335.891 1117.36 355.792 1108.47 357.553 1107.55C458.294 1035.57 439.373 807.088 436.926 781.704C512.971 668.667 467.69 539.207 467.168 537.805ZM352.366 1098.53C352.203 1098.53 336.381 1105.53 324.995 1098.89C317.851 1094.68 313.577 1085.69 312.337 1073.01C314.071 1038.81 311.959 1004.53 306.041 970.795C292.992 901.584 262.456 863.46 217.664 860.462C214.891 860.266 212.118 860.299 208.889 860.266H202.723C197.96 860.266 193.229 860.266 188.499 860.495C81.3638 867.598 93.2387 1064.64 93.8912 1072.3C92.6515 1085.82 88.3778 1094.81 81.2007 1099.02C70.2066 1105.53 55.102 1099.18 54.7431 1099.18C-44.6276 1028.14 -20.2906 783.724 -19.997 781.28C-19.8675 780.015 -20.1912 778.745 -20.9104 777.696C-95.4222 668.504 -51.5764 542.693 -51.1849 541.65C-29.3273 484.822 11.4845 451.194 63.6493 446.958C89.748 444.775 113.237 455.17 138.031 466.086C149.014 471.137 160.252 475.618 171.698 479.511H171.926C181.159 482.769 241.969 503.754 284.444 503.754C301.441 503.754 315.534 500.496 322.157 491.176C322.889 490.024 323.153 488.636 322.894 487.296C322.634 485.956 321.871 484.766 320.761 483.97C319.651 483.174 318.279 482.832 316.925 483.015C315.571 483.198 314.338 483.891 313.479 484.953C303.692 498.736 261.282 493.294 220.959 483.128C237.145 478.911 252.888 473.149 267.969 465.923C292.796 455.007 316.317 444.677 342.351 446.796C394.548 451.032 435.295 484.659 457.152 541.292C457.609 542.53 501.52 668.08 426.976 777.305C426.256 778.354 425.933 779.624 426.062 780.889C426.323 783.594 450.693 1028.21 352.366 1098.53Z" fill="#FFA800"/>
<path d="M441.461 754.271C443.124 751.404 444.723 748.504 446.256 745.603C446.974 744.202 447.724 742.801 448.409 741.4C449.943 738.337 451.378 735.274 452.748 732.211C453.238 731.136 453.76 730.06 454.249 728.953C456.043 724.782 457.74 720.611 459.306 716.44L459.697 715.299C461.1 711.487 462.372 707.675 463.547 703.862C463.873 702.852 464.166 701.842 464.46 700.832C465.471 697.573 466.385 694.315 467.233 691.056L467.918 688.352C468.897 684.344 469.778 680.336 470.561 676.393C471.441 672.059 472.159 667.725 472.779 663.359C479.232 618.591 475.599 572.948 462.144 529.76C441.493 476.191 401.529 436.47 342.775 431.68C292.306 427.574 250.81 467.849 202.984 470.554C155.19 467.816 113.694 427.541 63.2252 431.68C4.50315 436.47 -35.5257 476.191 -56.1763 529.76C-56.1763 529.76 -102.338 657.885 -25.3798 770.629C-25.3798 770.629 -51.4785 1019.77 51.5787 1093.45C51.5787 1093.45 94.5436 1113 99.1435 1062.69C99.1435 1062.69 85.8332 862.681 188.858 855.838C193.98 855.48 199.134 855.578 204.256 855.643C205.789 855.643 207.323 855.643 208.823 855.643C211.596 855.643 214.402 855.643 217.142 855.838C227.271 856.476 237.145 859.275 246.098 864.048C255.052 868.82 262.877 875.454 269.046 883.503C269.666 884.285 270.253 885.1 270.873 885.914C271.884 887.218 272.896 888.554 273.842 889.955C274.788 891.356 275.179 891.943 275.799 892.953C276.419 893.963 277.463 895.592 278.278 896.928C279.094 898.264 279.518 899.046 280.105 900.187C280.693 901.327 281.639 903.087 282.422 904.586C283.205 906.085 283.466 906.639 283.955 907.844C285.097 910.223 286.206 912.699 287.217 915.176L288.457 918.434C289.109 920.064 289.729 921.693 290.349 923.42C290.969 925.147 291.23 925.929 291.654 927.2C292.078 928.47 292.665 930.263 293.155 931.794C293.644 933.326 293.97 934.401 294.362 935.737C294.753 937.073 295.243 938.995 295.667 940.462C296.091 941.928 296.384 943.003 296.711 944.274C297.2 946.262 297.657 948.217 298.113 950.205C298.57 952.192 298.929 953.756 299.288 955.549C299.647 957.341 300.071 959.198 300.397 961.023C300.723 962.848 300.919 963.76 301.147 965.161C301.376 966.562 301.702 968.224 301.963 969.723C302.224 971.222 302.387 972.525 302.615 973.927C302.844 975.328 303.072 976.924 303.268 978.423C303.464 979.922 303.659 981.128 303.823 982.496C303.986 983.865 304.214 985.755 304.41 987.449C304.605 989.144 304.769 990.708 304.932 992.174C305.16 994.292 305.388 996.443 305.552 998.691C305.552 999.929 305.78 1001.13 305.878 1002.37C305.976 1003.61 306.106 1005.27 306.204 1006.71C306.302 1008.14 306.367 1009.18 306.465 1010.39C306.563 1011.59 306.465 1013.16 306.693 1014.49C306.922 1015.83 306.693 1016.81 306.693 1017.92C306.693 1019.02 306.693 1020.78 306.889 1022.18C307.085 1023.59 306.889 1024.11 306.889 1025.02C306.889 1027.2 306.889 1029.29 306.889 1031.34C306.889 1032.25 306.889 1033.1 306.889 1033.98C306.889 1034.86 306.889 1036.46 306.889 1037.63V1045.71C306.889 1046.75 306.889 1047.76 306.889 1048.71C306.889 1049.65 306.889 1049.91 306.889 1050.47C306.889 1051.87 306.889 1053.21 306.889 1054.41C306.889 1054.87 306.889 1055.19 306.889 1055.62C306.889 1056.04 306.889 1057.18 306.889 1057.87C306.889 1058.55 306.889 1058.71 306.889 1059.1C306.889 1059.49 306.889 1060.05 306.889 1060.47V1061.38C306.889 1061.74 306.889 1062.07 306.889 1062.33C306.907 1062.47 306.907 1062.61 306.889 1062.75V1063.21C311.522 1113.39 354.454 1093.97 354.454 1093.97C457.544 1020.29 431.413 771.15 431.413 771.15C434.185 767.077 436.763 762.971 439.242 758.866C439.992 757.008 440.71 755.705 441.461 754.271Z" fill="white"/>
<path d="M467.168 527.805C443.711 466.969 399.703 430.93 343.199 426.303C314.295 423.99 288.555 435.329 263.631 446.31C242.98 455.402 223.471 464.004 203.277 465.177C182.496 464.004 162.987 455.402 142.337 446.31C117.38 435.329 91.6402 424.022 62.7359 426.303C6.26481 430.93 -37.7441 466.969 -61.2329 527.903C-61.6897 529.207 -106.906 658.667 -30.9258 771.965C-33.3073 797.283 -52.1636 1025.77 49.3929 1098.27C55.7148 1100.94 62.4956 1102.36 69.3584 1102.44C75.3481 1102.55 81.2586 1101.06 86.4857 1098.14C96.8273 1092.11 102.797 1080.35 104.461 1062.3C104.461 1060.34 92.6515 867.536 189.282 861.117C193.751 860.824 198.221 860.889 202.657 860.922H209.182C211.694 860.922 214.239 860.922 216.751 860.922C313.283 867.439 301.572 1060.15 301.572 1062.95C303.17 1080.15 309.205 1091.92 319.58 1097.94C335.891 1107.36 355.792 1098.47 357.553 1097.55C458.294 1025.57 439.373 797.088 436.926 771.704C512.971 658.667 467.69 529.207 467.168 527.805ZM352.366 1088.53C352.203 1088.53 336.381 1095.53 324.995 1088.89C317.851 1084.68 313.577 1075.69 312.337 1063.01C314.071 1028.81 311.959 994.526 306.041 960.795C292.992 891.584 262.456 853.46 217.664 850.462C214.891 850.266 212.118 850.299 208.889 850.266H202.723C197.96 850.266 193.229 850.266 188.499 850.495C81.3638 857.598 93.2387 1054.64 93.8912 1062.3C92.6515 1075.82 88.3778 1084.81 81.2007 1089.02C70.2066 1095.53 55.102 1089.18 54.7431 1089.18C-44.6276 1018.14 -20.2906 773.724 -19.997 771.28C-19.8675 770.015 -20.1912 768.745 -20.9104 767.696C-95.4222 658.504 -51.5764 532.693 -51.1849 531.65C-29.3273 474.822 11.4845 441.194 63.6493 436.958C89.748 434.775 113.237 445.17 138.031 456.086C149.014 461.137 160.252 465.618 171.698 469.511H171.926C181.159 472.769 241.969 493.754 284.444 493.754C301.441 493.754 315.534 490.496 322.157 481.176C322.889 480.024 323.153 478.636 322.894 477.296C322.634 475.956 321.871 474.766 320.761 473.97C319.651 473.174 318.279 472.832 316.925 473.015C315.571 473.198 314.338 473.891 313.479 474.953C303.692 488.736 261.282 483.294 220.959 473.128C237.145 468.911 252.888 463.149 267.969 455.923C292.796 445.007 316.317 434.677 342.351 436.796C394.548 441.032 435.295 474.659 457.152 531.292C457.609 532.53 501.52 658.08 426.976 767.305C426.256 768.354 425.933 769.624 426.062 770.889C426.323 773.594 450.693 1018.21 352.366 1088.53Z" fill="#DBECF6"/>
</g>
</svg>
