<svg width="10" height="9" viewBox="0 0 10 9" fill="none" xmlns="http://www.w3.org/2000/svg">
<path d="M0.625 5H8.0375L5.76875 7.725C5.71622 7.7882 5.67665 7.86113 5.65231 7.93962C5.62796 8.01811 5.61932 8.10062 5.62686 8.18245C5.6421 8.34772 5.72236 8.50016 5.85 8.60625C5.97764 8.71234 6.14219 8.76338 6.30745 8.74814C6.47272 8.7329 6.62516 8.65264 6.73125 8.525L9.85625 4.775C9.87727 4.74517 9.89608 4.71384 9.9125 4.68125C9.9125 4.65 9.94375 4.63125 9.95625 4.6C9.98458 4.52834 9.99941 4.45206 10 4.375C9.99941 4.29795 9.98458 4.22166 9.95625 4.15C9.95625 4.11875 9.925 4.1 9.9125 4.06875C9.89608 4.03616 9.87727 4.00483 9.85625 3.975L6.73125 0.225001C6.67249 0.15445 6.5989 0.097712 6.51572 0.0588238C6.43254 0.0199357 6.34182 -0.00014792 6.25 1.19397e-06C6.10397 -0.000284127 5.96244 0.0505755 5.85 0.143751C5.78671 0.196219 5.7344 0.260657 5.69605 0.333374C5.65771 0.406091 5.63409 0.485659 5.62654 0.567519C5.61899 0.649379 5.62767 0.731925 5.65207 0.810427C5.67647 0.888929 5.71612 0.961846 5.76875 1.025L8.0375 3.75H0.625C0.45924 3.75 0.300269 3.81585 0.183058 3.93306C0.0658481 4.05027 0 4.20924 0 4.375C0 4.54076 0.0658481 4.69973 0.183058 4.81694C0.300269 4.93415 0.45924 5 0.625 5Z" fill="white"/>
</svg>
